<svg xmlns="http://www.w3.org/2000/svg" xmlns:xlink="http://www.w3.org/1999/xlink" version="1.1" width="256" height="256" viewBox="0 0 256 256" xml:space="preserve">
<desc>Created with Fabric.js 1.7.22</desc>
<defs>
</defs>
<g transform="translate(128 128) scale(0.72 0.72)" style="">
	<g style="stroke: none; stroke-width: 0; stroke-dasharray: none; stroke-linecap: butt; stroke-linejoin: miter; stroke-miterlimit: 10; fill: none; fill-rule: nonzero; opacity: 1;" transform="translate(-175.05 -175.05000000000004) scale(3.89 3.89)" >
	<path d="M 80.808 76.333 H 42.521 c -1.104 0 -2 -0.896 -2 -2 s 0.896 -2 2 -2 h 38.287 c 2.863 0 5.192 -2.329 5.192 -5.192 V 17.255 c 0 -2.863 -2.329 -5.192 -5.192 -5.192 H 9.193 C 6.33 12.063 4 14.392 4 17.255 v 25.248 c 0 1.104 -0.896 2 -2 2 s -2 -0.896 -2 -2 V 17.255 c 0 -5.069 4.124 -9.192 9.193 -9.192 h 71.615 c 5.068 0 9.192 4.124 9.192 9.192 v 49.885 C 90 72.209 85.876 76.333 80.808 76.333 z" style="stroke: none; stroke-width: 1; stroke-dasharray: none; stroke-linecap: butt; stroke-linejoin: miter; stroke-miterlimit: 10; fill: rgb(0,0,0); fill-rule: nonzero; opacity: 1;" transform=" matrix(1 0 0 1 0 0) " stroke-linecap="round" />
	<path d="M 88 52.07 H 74.707 c -5.443 0 -9.872 -4.429 -9.872 -9.872 c 0 -5.444 4.429 -9.873 9.872 -9.873 H 88 c 1.104 0 2 0.896 2 2 V 50.07 C 90 51.175 89.104 52.07 88 52.07 z M 74.707 36.326 c -3.238 0 -5.872 2.634 -5.872 5.873 c 0 3.238 2.634 5.872 5.872 5.872 H 86 V 36.326 H 74.707 z" style="stroke: none; stroke-width: 1; stroke-dasharray: none; stroke-linecap: butt; stroke-linejoin: miter; stroke-miterlimit: 10; fill: rgb(0,0,0); fill-rule: nonzero; opacity: 1;" transform=" matrix(1 0 0 1 0 0) " stroke-linecap="round" />
	<path d="M 19.526 81.938 C 8.759 81.938 0 73.178 0 62.411 s 8.759 -19.526 19.526 -19.526 c 10.767 0 19.526 8.76 19.526 19.526 S 30.293 81.938 19.526 81.938 z M 19.526 46.885 C 10.965 46.885 4 53.85 4 62.411 s 6.965 15.526 15.526 15.526 s 15.526 -6.965 15.526 -15.526 S 28.087 46.885 19.526 46.885 z" style="stroke: none; stroke-width: 1; stroke-dasharray: none; stroke-linecap: butt; stroke-linejoin: miter; stroke-miterlimit: 10; fill: rgb(0,0,0); fill-rule: nonzero; opacity: 1;" transform=" matrix(1 0 0 1 0 0) " stroke-linecap="round" />
	<path d="M 76.566 44.198 h -3.495 c -1.104 0 -2 -0.896 -2 -2 s 0.896 -2 2 -2 h 3.495 c 1.104 0 2 0.896 2 2 S 77.671 44.198 76.566 44.198 z" style="stroke: none; stroke-width: 1; stroke-dasharray: none; stroke-linecap: butt; stroke-linejoin: miter; stroke-miterlimit: 10; fill: rgb(0,0,0); fill-rule: nonzero; opacity: 1;" transform=" matrix(1 0 0 1 0 0) " stroke-linecap="round" />
	<path d="M 20.753 71.165 h -4.408 c -1.104 0 -2 -0.896 -2 -2 s 0.896 -2 2 -2 h 4.408 c 0.184 0 0.346 -0.162 0.346 -0.347 v -2.062 c 0 -0.185 -0.162 -0.346 -0.346 -0.346 h -2.455 c -2.396 0 -4.346 -1.949 -4.346 -4.346 v -2.063 c 0 -2.396 1.95 -4.346 4.346 -4.346 h 4.408 c 1.104 0 2 0.896 2 2 s -0.896 2 -2 2 h -4.408 c -0.184 0 -0.346 0.161 -0.346 0.346 v 2.063 c 0 0.185 0.162 0.346 0.346 0.346 h 2.455 c 2.396 0 4.346 1.949 4.346 4.346 v 2.062 C 25.099 69.215 23.149 71.165 20.753 71.165 z" style="stroke: none; stroke-width: 1; stroke-dasharray: none; stroke-linecap: butt; stroke-linejoin: miter; stroke-miterlimit: 10; fill: rgb(0,0,0); fill-rule: nonzero; opacity: 1;" transform=" matrix(1 0 0 1 0 0) " stroke-linecap="round" />
	<path d="M 19.526 57.657 c -1.104 0 -2 -0.896 -2 -2 v -2.909 c 0 -1.104 0.896 -2 2 -2 s 2 0.896 2 2 v 2.909 C 21.526 56.762 20.63 57.657 19.526 57.657 z" style="stroke: none; stroke-width: 1; stroke-dasharray: none; stroke-linecap: butt; stroke-linejoin: miter; stroke-miterlimit: 10; fill: rgb(0,0,0); fill-rule: nonzero; opacity: 1;" transform=" matrix(1 0 0 1 0 0) " stroke-linecap="round" />
	<path d="M 19.526 74.074 c -1.104 0 -2 -0.896 -2 -2 v -2.909 c 0 -1.104 0.896 -2 2 -2 s 2 0.896 2 2 v 2.909 C 21.526 73.179 20.63 74.074 19.526 74.074 z" style="stroke: none; stroke-width: 1; stroke-dasharray: none; stroke-linecap: butt; stroke-linejoin: miter; stroke-miterlimit: 10; fill: rgb(0,0,0); fill-rule: nonzero; opacity: 1;" transform=" matrix(1 0 0 1 0 0) " stroke-linecap="round" />
	<path d="M 88 21.638 H 10.508 c -1.104 0 -2 -0.896 -2 -2 s 0.896 -2 2 -2 H 88 c 1.104 0 2 0.896 2 2 S 89.104 21.638 88 21.638 z" style="stroke: none; stroke-width: 1; stroke-dasharray: none; stroke-linecap: butt; stroke-linejoin: miter; stroke-miterlimit: 10; fill: rgb(0,0,0); fill-rule: nonzero; opacity: 1;" transform=" matrix(1 0 0 1 0 0) " stroke-linecap="round" />
	<path d="M 88 66.759 H 45.912 c -1.104 0 -2 -0.896 -2 -2 s 0.896 -2 2 -2 H 88 c 1.104 0 2 0.896 2 2 S 89.104 66.759 88 66.759 z" style="stroke: none; stroke-width: 1; stroke-dasharray: none; stroke-linecap: butt; stroke-linejoin: miter; stroke-miterlimit: 10; fill: rgb(0,0,0); fill-rule: nonzero; opacity: 1;" transform=" matrix(1 0 0 1 0 0) " stroke-linecap="round" />
</g>
</g>
</svg>